<svg width="18" height="16" viewBox="0 0 18 16" fill="none" xmlns="http://www.w3.org/2000/svg">
<path d="M16.7143 6.54163H3.85714L8.08714 2.42617C8.20765 2.30988 8.3033 2.17153 8.36857 2.01909C8.43385 1.86666 8.46745 1.70316 8.46745 1.53803C8.46745 1.37289 8.43385 1.20939 8.36857 1.05696C8.3033 0.904524 8.20765 0.766173 8.08714 0.649885C7.84625 0.416904 7.52038 0.286133 7.18071 0.286133C6.84105 0.286133 6.51518 0.416904 6.27429 0.649885L0.758572 6.02876C0.275673 6.49578 0.00287073 7.13008 0 7.79253C0.00625704 8.45064 0.2788 9.07984 0.758572 9.54379L6.27429 14.9227C6.39416 15.0385 6.53631 15.1302 6.69262 15.1925C6.84892 15.2549 7.01632 15.2867 7.18526 15.2861C7.3542 15.2855 7.52136 15.2526 7.67721 15.1892C7.83306 15.1257 7.97454 15.033 8.09357 14.9164C8.21261 14.7998 8.30686 14.6615 8.37096 14.5094C8.43506 14.3573 8.46774 14.1945 8.46714 14.0301C8.46655 13.8657 8.43268 13.7031 8.36748 13.5515C8.30228 13.3998 8.20702 13.2622 8.08714 13.1464L3.85714 9.04343H16.7143C17.0553 9.04343 17.3823 8.91164 17.6234 8.67705C17.8645 8.44246 18 8.12429 18 7.79253C18 7.46077 17.8645 7.1426 17.6234 6.90801C17.3823 6.67342 17.0553 6.54163 16.7143 6.54163Z" fill="white"/>
</svg>
