<svg width="16" height="16" viewBox="0 0 16 16" fill="none" xmlns="http://www.w3.org/2000/svg">
<path d="M12.9698 1.96959L12.9698 1.96962L8 6.93943L3.03019 1.96962L3.03016 1.96959C2.88951 1.82899 2.69878 1.75 2.4999 1.75C2.30103 1.75 2.11029 1.82899 1.96965 1.96959L1.96959 1.96965C1.82899 2.11029 1.75 2.30103 1.75 2.4999C1.75 2.69878 1.82899 2.88951 1.96959 3.03016L1.96962 3.03019L6.93943 8L1.96962 12.9698L1.96959 12.9698C1.82899 13.1105 1.75 13.3012 1.75 13.5001C1.75 13.699 1.82899 13.8897 1.96959 14.0304L1.96965 14.0304C2.11029 14.171 2.30103 14.25 2.4999 14.25C2.69878 14.25 2.88951 14.171 3.03016 14.0304L3.03019 14.0304L8 9.06057L12.9698 14.0304L12.9698 14.0304C13.1105 14.171 13.3012 14.25 13.5001 14.25C13.699 14.25 13.8897 14.171 14.0304 14.0304L14.0304 14.0304C14.171 13.8897 14.25 13.699 14.25 13.5001C14.25 13.3012 14.171 13.1105 14.0304 12.9698L14.0304 12.9698L9.06057 8L14.0304 3.03019L14.0304 3.03016C14.171 2.88951 14.25 2.69878 14.25 2.4999C14.25 2.30103 14.171 2.11029 14.0304 1.96965L14.0304 1.96959C13.8897 1.82899 13.699 1.75 13.5001 1.75C13.3012 1.75 13.1105 1.82899 12.9698 1.96959Z" fill="black" stroke="black" stroke-width="0.5"/>
</svg>
